<?xml version="1.0" encoding="utf-8"?>
<!-- Generator: Adobe Illustrator 23.0.2, SVG Export Plug-In . SVG Version: 6.00 Build 0)  -->
<svg version="1.1" id="Layer_1" xmlns="http://www.w3.org/2000/svg" xmlns:xlink="http://www.w3.org/1999/xlink" x="0px" y="0px"
	 viewBox="0 0 104 31" style="enable-background:new 0 0 104 31;" xml:space="preserve">
<style type="text/css">
	.st0{filter:url(#Adobe_OpacityMaskFilter);}
	.st1{fill-rule:evenodd;clip-rule:evenodd;fill:#FFFFFF;}
	.st2{mask:url(#mask-4_1_);fill-rule:evenodd;clip-rule:evenodd;fill:#231F20;}
	.st3{filter:url(#Adobe_OpacityMaskFilter_1_);}
	.st4{mask:url(#mask-6_1_);fill-rule:evenodd;clip-rule:evenodd;fill:#231F20;}
	.st5{filter:url(#Adobe_OpacityMaskFilter_2_);}
	.st6{mask:url(#mask-8_1_);fill-rule:evenodd;clip-rule:evenodd;fill:#FEFEFE;}
	.st7{fill-rule:evenodd;clip-rule:evenodd;fill:#FEFEFE;}
	.st8{fill-rule:evenodd;clip-rule:evenodd;fill:#231F20;}
	.st9{fill:#231F20;}
</style>
<title>Group 26</title>
<desc>Created with Sketch.</desc>
<g>
	<g id="Group-14">
		<g id="Group-3" transform="translate(1.823708, 11.854364)">
			<g id="Clip-2">
			</g>
			<defs>
				<filter id="Adobe_OpacityMaskFilter" filterUnits="userSpaceOnUse" x="0" y="0.2" width="18.1" height="18.1">
					<feColorMatrix  type="matrix" values="1 0 0 0 0  0 1 0 0 0  0 0 1 0 0  0 0 0 1 0"/>
				</filter>
			</defs>
			<mask maskUnits="userSpaceOnUse" x="0" y="0.2" width="18.1" height="18.1" id="mask-4_1_">
				<g class="st0">
					<polygon id="path-3_1_" class="st1" points="0,0.2 18.1,0.2 18.1,18.2 0,18.2 					"/>
				</g>
			</mask>
			<path class="st2" d="M13.2,4.4c-0.8-2.5-2.4-4.2-4.2-4.2c-1.8,0-3.4,1.7-4.2,4.2h0L0,17.6c0.6,0.4,1.3,0.6,2.1,0.6h16L13.2,4.4
				L13.2,4.4z"/>
		</g>
		<g id="Group-6" transform="translate(0.000000, 0.036182)">
			<g id="Clip-5">
			</g>
			<defs>
				<filter id="Adobe_OpacityMaskFilter_1_" filterUnits="userSpaceOnUse" x="0" y="0.2" width="29.9" height="29.7">
					<feColorMatrix  type="matrix" values="1 0 0 0 0  0 1 0 0 0  0 0 1 0 0  0 0 0 1 0"/>
				</filter>
			</defs>
			<mask maskUnits="userSpaceOnUse" x="0" y="0.2" width="29.9" height="29.7" id="mask-6_1_">
				<g class="st3">
					<polygon id="path-5_1_" class="st1" points="0,0.2 29.9,0.2 29.9,29.9 0,29.9 					"/>
				</g>
			</mask>
			<path id="Fill-4" class="st4" d="M26,0.2H3.9C1.8,0.2,0,2,0,4.1v14.4l4.6-9.2h0C5.7,6.7,8.1,5,10.7,5s5,1.8,6.2,4.3h0l10.2,20.6
				c1.7-0.5,2.9-2,2.9-3.8v-22C29.9,2,28.2,0.2,26,0.2"/>
		</g>
		<g id="Group-9" transform="translate(0.000000, 4.763455)">
			<g id="Clip-8">
			</g>
			<defs>
				<filter id="Adobe_OpacityMaskFilter_2_" filterUnits="userSpaceOnUse" x="0" y="0.2" width="27.1" height="25.1">
					<feColorMatrix  type="matrix" values="1 0 0 0 0  0 1 0 0 0  0 0 1 0 0  0 0 0 1 0"/>
				</filter>
			</defs>
			<mask maskUnits="userSpaceOnUse" x="0" y="0.2" width="27.1" height="25.1" id="mask-8_1_">
				<g class="st5">
					<polygon id="path-7_1_" class="st1" points="0,0.2 27.1,0.2 27.1,25.3 0,25.3 					"/>
				</g>
			</mask>
			<path class="st6" d="M16.9,4.6c-1.2-2.6-3.5-4.3-6.2-4.3c-2.7,0-5,1.8-6.2,4.3h0L0,13.8v7.6c0,1.4,0.7,2.6,1.8,3.3l4.7-13.3h0
				C7.3,9,8.9,7.3,10.7,7.3c1.8,0,3.4,1.7,4.2,4.2h0l4.9,13.9H26c0.4,0,0.7-0.1,1.1-0.1L16.9,4.6L16.9,4.6z"/>
		</g>
		<polygon id="Fill-10" class="st7" points="22.5,17.9 24.8,22.7 25.5,21.2 23.1,16.4 		"/>
		<path id="Fill-12" class="st7" d="M28.9,12.2c-0.1-1.1-1.1-1.9-2.3-1.7c-0.7,0.1-1.3,0.5-1.6,1.1l0,0l-1.4,3.3l2.4,4.8l2.7-6.4
			l0,0C28.9,13,29,12.6,28.9,12.2"/>
	</g>
	<g>
		<g>
			<path class="st8" d="M40.8,7v3.4h3.1v3h-3.1V18c0,1.3,0.7,1.6,1.4,1.6c0.4,0,1.1-0.1,1.5-0.3l0.8,3c-0.9,0.3-1.6,0.5-2.6,0.5
				c-2.7,0.1-4.7-1-4.7-4.9v-4.6H35v-3h2.2v-3L40.8,7z"/>
			<path class="st8" d="M55.8,10.3h3.3c0,4.1,0,8.2,0,12.2h-3.2l-0.2-1.5c-0.8,1.3-2.6,1.8-3.8,1.8c-3.7,0-6.3-2.4-6.3-6.4
				c0-4.1,2.8-6.4,6.4-6.4c1.5,0,3,0.6,3.6,1.7L55.8,10.3z M49.2,16.5c0,2,1.4,3.2,3.2,3.2c2,0,3.2-1.6,3.2-3.1
				c0-1.8-1.1-3.4-3.2-3.4C50.6,13.2,49.2,14.4,49.2,16.5z"/>
			<path class="st8" d="M67,7v3.4h3.1v3H67V18c0,1.3,0.7,1.6,1.4,1.6c0.4,0,1.1-0.1,1.5-0.3l0.8,3c-0.9,0.3-1.6,0.5-2.6,0.5
				c-2.7,0.1-4.7-1-4.7-4.9v-4.6h-2.2v-3h2.2v-3L67,7z"/>
			<path class="st8" d="M80.3,13.8c-0.9-0.6-1.8-0.9-2.9-0.9c-1.2,0-1.8,0.4-1.8,1c0,0.7,0.6,1,1.8,1.1c2.4,0.1,5.3,0.6,5.3,3.9
				c0,2-1.5,4.1-5.4,4.1c-1.8,0-3.7-0.3-5.8-2.1l1.5-2.5c1.5,1.2,3,1.5,4.3,1.5c1,0,1.9-0.4,1.8-1c0-0.6-0.4-1-2.1-1.1
				c-2.3-0.1-5.1-1-5.1-3.9c0-2.8,2.6-3.9,5.3-3.9c1.9,0,3.4,0.5,4.7,1.6L80.3,13.8z"/>
			<path class="st8" d="M88.3,10.3v6.5c0,1.9,0.8,2.9,2.5,2.9c1.7,0,2.8-1.4,2.8-3v-6.3h3.5v12.2h-3.2L93.8,21
				c-1.1,1.5-2.5,1.9-4,1.9c-2.8,0-5.1-1.2-5.1-6v-6.5H88.3z"/>
		</g>
		<g>
			<path class="st9" d="M40.8,7v3.4h3.1v3h-3.1V18c0,1.3,0.7,1.6,1.4,1.6c0.4,0,1.1-0.1,1.5-0.3l0.8,3c-0.9,0.3-1.6,0.5-2.6,0.5
				c-2.7,0.1-4.7-1-4.7-4.9v-4.6H35v-3h2.2v-3L40.8,7z"/>
			<path class="st9" d="M55.8,10.3h3.3c0,4.1,0,8.2,0,12.2h-3.2l-0.2-1.5c-0.8,1.3-2.6,1.8-3.8,1.8c-3.7,0-6.3-2.4-6.3-6.4
				c0-4.1,2.8-6.4,6.4-6.4c1.5,0,3,0.6,3.6,1.7L55.8,10.3z M49.2,16.5c0,2,1.4,3.2,3.2,3.2c2,0,3.2-1.6,3.2-3.1
				c0-1.8-1.1-3.4-3.2-3.4C50.6,13.2,49.2,14.4,49.2,16.5z"/>
			<path class="st9" d="M67,7v3.4h3.1v3H67V18c0,1.3,0.7,1.6,1.4,1.6c0.4,0,1.1-0.1,1.5-0.3l0.8,3c-0.9,0.3-1.6,0.5-2.6,0.5
				c-2.7,0.1-4.7-1-4.7-4.9v-4.6h-2.2v-3h2.2v-3L67,7z"/>
			<path class="st9" d="M80.3,13.8c-0.9-0.6-1.8-0.9-2.9-0.9c-1.2,0-1.8,0.4-1.8,1c0,0.7,0.6,1,1.8,1.1c2.4,0.1,5.3,0.6,5.3,3.9
				c0,2-1.5,4.1-5.4,4.1c-1.8,0-3.7-0.3-5.8-2.1l1.5-2.5c1.5,1.2,3,1.5,4.3,1.5c1,0,1.9-0.4,1.8-1c0-0.6-0.4-1-2.1-1.1
				c-2.3-0.1-5.1-1-5.1-3.9c0-2.8,2.6-3.9,5.3-3.9c1.9,0,3.4,0.5,4.7,1.6L80.3,13.8z"/>
			<path class="st9" d="M88.3,10.3v6.5c0,1.9,0.8,2.9,2.5,2.9c1.7,0,2.8-1.4,2.8-3v-6.3h3.5v12.2h-3.2L93.8,21
				c-1.1,1.5-2.5,1.9-4,1.9c-2.8,0-5.1-1.2-5.1-6v-6.5H88.3z"/>
		</g>
	</g>
</g>
</svg>
